<?xml version="1.0" encoding="UTF-8" standalone="no"?>
<!DOCTYPE svg PUBLIC "-//W3C//DTD SVG 1.1//EN"
 "http://www.w3.org/Graphics/SVG/1.1/DTD/svg11.dtd">
<!-- Generated by graphviz version 2.40.1 (20161225.0304)
 -->
<!-- Title: Tree Pages: 1 -->
<svg width="338pt" height="300pt"
 viewBox="0.00 0.00 337.54 300.00" xmlns="http://www.w3.org/2000/svg" xmlns:xlink="http://www.w3.org/1999/xlink">
<g id="graph0" class="graph" transform="scale(1 1) rotate(0) translate(4 296)">
<title>Tree</title>
<polygon fill="#ffffff" stroke="transparent" points="-4,4 -4,-296 333.5371,-296 333.5371,4 -4,4"/>
<!-- 0 -->
<g id="node1" class="node">
<title>0</title>
<polygon fill="none" stroke="#000000" points="211.6875,-292 52.8496,-292 52.8496,-214 211.6875,-214 211.6875,-292"/>
<text text-anchor="middle" x="132.2686" y="-276.8" font-family="Times,serif" font-size="14.00" fill="#000000">petal length (cm) &lt;= 2.45</text>
<text text-anchor="middle" x="132.2686" y="-262.8" font-family="Times,serif" font-size="14.00" fill="#000000">gini = 0.667</text>
<text text-anchor="middle" x="132.2686" y="-248.8" font-family="Times,serif" font-size="14.00" fill="#000000">samples = 150</text>
<text text-anchor="middle" x="132.2686" y="-234.8" font-family="Times,serif" font-size="14.00" fill="#000000">value = [50, 50, 50]</text>
<text text-anchor="middle" x="132.2686" y="-220.8" font-family="Times,serif" font-size="14.00" fill="#000000">class = setosa</text>
</g>
<!-- 1 -->
<g id="node2" class="node">
<title>1</title>
<polygon fill="none" stroke="#000000" points="112.3066,-171 .2305,-171 .2305,-107 112.3066,-107 112.3066,-171"/>
<text text-anchor="middle" x="56.2686" y="-155.8" font-family="Times,serif" font-size="14.00" fill="#000000">gini = 0.0</text>
<text text-anchor="middle" x="56.2686" y="-141.8" font-family="Times,serif" font-size="14.00" fill="#000000">samples = 50</text>
<text text-anchor="middle" x="56.2686" y="-127.8" font-family="Times,serif" font-size="14.00" fill="#000000">value = [50, 0, 0]</text>
<text text-anchor="middle" x="56.2686" y="-113.8" font-family="Times,serif" font-size="14.00" fill="#000000">class = setosa</text>
</g>
<!-- 0&#45;&gt;1 -->
<g id="edge1" class="edge">
<title>0&#45;&gt;1</title>
<path fill="none" stroke="#000000" d="M106.1137,-213.7677C98.7955,-202.7904 90.826,-190.8362 83.4499,-179.772"/>
<polygon fill="#000000" stroke="#000000" points="86.1446,-177.5043 77.6854,-171.1252 80.3202,-181.3872 86.1446,-177.5043"/>
<text text-anchor="middle" x="72.7825" y="-191.4397" font-family="Times,serif" font-size="14.00" fill="#000000">True</text>
</g>
<!-- 2 -->
<g id="node3" class="node">
<title>2</title>
<polygon fill="none" stroke="#000000" points="286.0841,-178 130.453,-178 130.453,-100 286.0841,-100 286.0841,-178"/>
<text text-anchor="middle" x="208.2686" y="-162.8" font-family="Times,serif" font-size="14.00" fill="#000000">petal width (cm) &lt;= 1.75</text>
<text text-anchor="middle" x="208.2686" y="-148.8" font-family="Times,serif" font-size="14.00" fill="#000000">gini = 0.5</text>
<text text-anchor="middle" x="208.2686" y="-134.8" font-family="Times,serif" font-size="14.00" fill="#000000">samples = 100</text>
<text text-anchor="middle" x="208.2686" y="-120.8" font-family="Times,serif" font-size="14.00" fill="#000000">value = [0, 50, 50]</text>
<text text-anchor="middle" x="208.2686" y="-106.8" font-family="Times,serif" font-size="14.00" fill="#000000">class = versicolor</text>
</g>
<!-- 0&#45;&gt;2 -->
<g id="edge2" class="edge">
<title>0&#45;&gt;2</title>
<path fill="none" stroke="#000000" d="M158.4234,-213.7677C164.2153,-205.0798 170.4151,-195.7801 176.4059,-186.794"/>
<polygon fill="#000000" stroke="#000000" points="179.4306,-188.5666 182.0655,-178.3046 173.6062,-184.6837 179.4306,-188.5666"/>
<text text-anchor="middle" x="186.9684" y="-198.6192" font-family="Times,serif" font-size="14.00" fill="#000000">False</text>
</g>
<!-- 3 -->
<g id="node4" class="node">
<title>3</title>
<polygon fill="none" stroke="#000000" points="199.3575,-64 85.1797,-64 85.1797,0 199.3575,0 199.3575,-64"/>
<text text-anchor="middle" x="142.2686" y="-48.8" font-family="Times,serif" font-size="14.00" fill="#000000">gini = 0.168</text>
<text text-anchor="middle" x="142.2686" y="-34.8" font-family="Times,serif" font-size="14.00" fill="#000000">samples = 54</text>
<text text-anchor="middle" x="142.2686" y="-20.8" font-family="Times,serif" font-size="14.00" fill="#000000">value = [0, 49, 5]</text>
<text text-anchor="middle" x="142.2686" y="-6.8" font-family="Times,serif" font-size="14.00" fill="#000000">class = versicolor</text>
</g>
<!-- 2&#45;&gt;3 -->
<g id="edge3" class="edge">
<title>2&#45;&gt;3</title>
<path fill="none" stroke="#000000" d="M184.0674,-99.7647C178.6593,-90.9971 172.911,-81.678 167.4638,-72.8469"/>
<polygon fill="#000000" stroke="#000000" points="170.3694,-70.8905 162.1406,-64.2169 164.4116,-74.5655 170.3694,-70.8905"/>
</g>
<!-- 4 -->
<g id="node5" class="node">
<title>4</title>
<polygon fill="none" stroke="#000000" points="329.3066,-64 217.2305,-64 217.2305,0 329.3066,0 329.3066,-64"/>
<text text-anchor="middle" x="273.2686" y="-48.8" font-family="Times,serif" font-size="14.00" fill="#000000">gini = 0.043</text>
<text text-anchor="middle" x="273.2686" y="-34.8" font-family="Times,serif" font-size="14.00" fill="#000000">samples = 46</text>
<text text-anchor="middle" x="273.2686" y="-20.8" font-family="Times,serif" font-size="14.00" fill="#000000">value = [0, 1, 45]</text>
<text text-anchor="middle" x="273.2686" y="-6.8" font-family="Times,serif" font-size="14.00" fill="#000000">class = virginica</text>
</g>
<!-- 2&#45;&gt;4 -->
<g id="edge4" class="edge">
<title>2&#45;&gt;4</title>
<path fill="none" stroke="#000000" d="M232.1031,-99.7647C237.4292,-90.9971 243.0903,-81.678 248.455,-72.8469"/>
<polygon fill="#000000" stroke="#000000" points="251.497,-74.5807 253.6976,-64.2169 245.5143,-70.9463 251.497,-74.5807"/>
</g>
</g>
</svg>
